<svg xmlns="http://www.w3.org/2000/svg" viewBox="0 0 653.82 158.02"><g data-name="Layer 2"><g data-name="Layer 1"><path d="M192.39 121.5a7.52 7.52 0 01-3.64 6.37 13.64 13.64 0 01-7.91 2.52 8.11 8.11 0 01-7.41-3.85 27.24 27.24 0 01-3.39-9.92 92 92 0 01-1.13-13.48q-.13-7.4-.38-14.21c-.33-1.38-.75-3.36-1.25-5.92a95.41 95.41 0 01-1.26-9.78q-6.78-8.9-16.32-8.9a34.27 34.27 0 00-7 .74 14.92 14.92 0 00-6.53 3.26 23.18 23.18 0 00-5.52 7.55 50.56 50.56 0 00-4 13.62 38.76 38.76 0 01.25 5.33c0 2.18-.13 4.79-.38 7.85s-.54 6.56-.88 10.51v7.26a46.94 46.94 0 01-1 9.47 23.73 23.73 0 01-3.64 8.74 8.72 8.72 0 01-7.66 3.85 11.83 11.83 0 01-8-3.11 9.72 9.72 0 01-3.51-7.55c0-.4.12-1.88.38-4.44s.58-5.48 1-8.74.75-6.52 1-9.77.38-5.87.38-7.85a68.36 68.36 0 00-.75-10.07v-3.85a80.14 80.14 0 00-5-28.43q-3.78-3.54-11.81-4.73a40.66 40.66 0 00-3.76 1.77 12.86 12.86 0 00-4.52 4.89 39.55 39.55 0 00-4 10.51 103.6 103.6 0 00-2.51 18.36l-.76 12.14a93.33 93.33 0 011.51 15.4q0 7.71-2.13 12.29t-9.42 4.59a15.39 15.39 0 01-6.15-1c-1.6-.69-2.85-2.26-3.77-4.73a41.2 41.2 0 01-1.88-11q-.51-7.26-.5-19.4a178.32 178.32 0 011-19.1q1-9.33 3-24.13a58.92 58.92 0 00-2.13-9.33 23.57 23.57 0 01-1.52-6.64 12.34 12.34 0 013.76-8.89 12 12 0 018.79-3.85 10 10 0 016.78 2.67l4.27 6.52a46 46 0 015.28-4.59 30 30 0 014-2.52 9.64 9.64 0 013.52-1q1.75-.15 4-.15h5.14a9.66 9.66 0 013.9.89 26 26 0 014.64 2.82q2.64 1.92 7.41 5.77 3 2.37 8 15.4l1.5-2.08a26.54 26.54 0 015.53-4.14 53.88 53.88 0 017.66-3.7 64.49 64.49 0 018.53-2.67 34.86 34.86 0 017.91-1 47.41 47.41 0 0114.38 1.85 29.08 29.08 0 0110.29 5.63 35.5 35.5 0 017.54 9.47 116.57 116.57 0 016.27 13.18v2.07q0 2.38.51 8.59t1 12.44c.33 4.14.67 7.75 1 10.81a30.47 30.47 0 00.5 4c0 .2 0 .85.12 1.93s.17 2.37.25 3.85.17 3 .25 4.44.13 2.62.13 3.41zM315.18 32.07a51.5 51.5 0 01.5 7.11v6.81a110.55 110.55 0 01-2.51 24.58q-1 7.41-1.5 15.25t-1 16.43q0 .6.63 6.37a170.19 170.19 0 01.63 17c0 3.36-1.13 5.87-3.39 7.55a12.9 12.9 0 01-7.91 2.52c-3.69 0-6.28-.94-7.79-2.82s-2.43-6.36-2.76-13.47a40 40 0 01-8.29 7.25 34.92 34.92 0 01-7.66 3.71 31.61 31.61 0 01-6.78 1.48c-2.09.2-4.06.29-5.9.29q-14.31 0-21.59-10.06t-7.28-27.84v-4.29c0-1.48.08-3.21.25-5.19a8.47 8.47 0 01-.25-2.66q0-3.25.12-6.66a78.05 78.05 0 01.88-8.44q.75-5 2.39-12.59t4.64-19.39a10.17 10.17 0 018.78-4.68 11.12 11.12 0 017.41 2.66c2.09 1.78 3.14 4.55 3.14 8.29a43.89 43.89 0 01-.76 5.93c-.5 3-1.09 6.21-1.75 9.77s-1.26 7.11-1.76 10.66a64 64 0 00-.76 8.29v1.48c-.33 2.18-.58 4.29-.75 6.37s-.25 4-.25 5.77a36.81 36.81 0 001.88 12.73q1.89 5 8.16 5a15.79 15.79 0 008.54-2.52 35.5 35.5 0 007.41-6.22 46.3 46.3 0 005.9-8 42.57 42.57 0 003.77-8.15q1.25-11 4.52-28.72v-3c0-3.36.12-6.61.38-9.77a40 40 0 011.5-8.44 13.65 13.65 0 013.39-5.92 8.55 8.55 0 016.28-2.23q7.53.02 9.54 7.76zM438.73 38.59q-.75 6.51-10.8 28.13l-7.53 19.84q-2.27 6.81-4 11.55c-1.17 3.16-2.22 5.88-3.14 8.14a55.92 55.92 0 01-2.76 5.92q-1.38 2.52-2.89 4.89a38.86 38.86 0 01-3.52 7.26 43.26 43.26 0 01-5.27 6.95 28.78 28.78 0 01-6.53 5.34 14.15 14.15 0 01-7.28 2.07q-10.54 0-15.07-15.7a44.37 44.37 0 01-5.27-9.18c-1.67-3.74-3.14-7.4-4.39-10.95s-2.31-6.67-3.14-9.33-1.34-4.19-1.51-4.59a46.15 46.15 0 01-3-17.47v-2.37q-4.78-14.22-4.77-26.06 0-5.62 3.89-8.29a15.35 15.35 0 018.91-2.67 7.26 7.26 0 014.9 1.63 11.21 11.21 0 013 4.74 43.85 43.85 0 011.89 7.55q.75 4.44 1.75 10.07 1.76 9.77 3.14 16.29a111.37 111.37 0 003 11.54 86.87 86.87 0 003.89 9.93c1.51 3.25 3.43 7.06 5.77 11.4a47.28 47.28 0 008.54-19.55 60.54 60.54 0 002.89-7.55q1.13-3.71 3.14-9.62t5.77-15.25q3.78-9.33 11-24.14 2.76-4.14 6.78-4.14 4.53 0 8.54 4.14t4 8.59zM530.13 130.98q-3.27 2.67-10.55 5.18a143.17 143.17 0 01-15.09 4.29l-10.3-2.36a53.26 53.26 0 01-7.4-4.15 43.44 43.44 0 01-10.43-9.92 65.16 65.16 0 01-9.29-17.18q-4-10.5-4-25.61a45.41 45.41 0 012.14-12.59 49.28 49.28 0 016.4-13.62 40.92 40.92 0 0110.67-10.81 25.58 25.58 0 0115-4.44q17.07 0 30.88 13a80.72 80.72 0 0112.06 43.24q-.04 17.51-10.09 34.97zm-12.3-42.05q-1.26-11.55-6.16-18.21t-12.43-6.66q-5 0-9.41 5.77t-4.4 16.73a46.39 46.39 0 001 9.33 30.42 30.42 0 003.26 8.88 19.93 19.93 0 005.8 6.56 14.24 14.24 0 008.54 2.51q8 0 11.05-5.77t3-14.36a19.23 19.23 0 00-.13-2.22 22.37 22.37 0 01-.12-2.56zM653.68 105.51v2.37q0 1.78.12 6.37a44.38 44.38 0 01-.75 9.33 22.12 22.12 0 01-3.39 8.44 8.49 8.49 0 01-7.53 3.7q-9.79 0-11.55-9.18a30.07 30.07 0 00.25-4v-13.62c0-5-.13-10.51-.38-16.44a146.21 146.21 0 00-1.63-16.73q-1.26-7.84-3.77-9.92c-3.85-3.15-7.28-4.74-10.29-4.74a13.59 13.59 0 00-10.17 4.3q-4.15 4.29-6.91 16.73c-.17 2.77-.34 5.87-.5 9.33s-.42 7.35-.76 11.69q0 5 .26 11.11t.75 13.77a12.55 12.55 0 01-3.77 9.33 11.91 11.91 0 01-8.54 3.7 7.92 7.92 0 01-6-2.37 14.83 14.83 0 01-3.39-6.22 41.35 41.35 0 01-1.51-8.29q-.37-4.44-.38-8.89 0-3.25.26-6.66t.75-7l2-28.43 2-14.21a39.26 39.26 0 00-2-7.7 20.4 20.4 0 01-1.51-6.51 14.15 14.15 0 013.39-9.18 10.44 10.44 0 018.41-4.15 7.57 7.57 0 015.28 1.63q1.76 1.64 5.77 7.85a38.07 38.07 0 018-3.41 29.86 29.86 0 017-.74 37.91 37.91 0 0123 7.26q9.91 7.26 12.43 24.13.75 6.23 1.38 10.36t1.13 8q.5 3.86 1 8.14t1.55 10.85zM16.49 70.95q0 1.29.45 6.66t.45 15.27q0 7.3-1.49 9.89a13.63 13.63 0 01.59 4v4.41a73.83 73.83 0 01-.76 10.15c-.5 3.52-.86 6.92-1 10.22a46 46 0 01.3 5.05v10.32a30.17 30.17 0 01-.54 5.41 8.68 8.68 0 01-1.8 4.08 5 5 0 01-4 1.61q-4.8 0-6-1.29-2.7-8-2.7-20.21a115.74 115.74 0 011.35-16.55 127.8 127.8 0 001.35-18.49 70 70 0 00-1.8-15.91q0-.44.3-4.2t.6-8.49c.2-3.15.5-6.13.9-8.92s.9-4.62 1.5-5.48q-1.5-4.31-1.5-15.7v-7.2q0-3.77.15-8.49c.1-3.15.4-6.78.9-10.86s1.24-9 2.24-14.73q.3-1.5 4.2-1.5 5.69 0 6.43 2.15a23.72 23.72 0 01.75 7.09q0 3.23-.3 7.53c-.2 2.87-.5 6.16-.89 9.89q.28 6.89.29 18z"/></g></g></svg>