<svg xmlns="http://www.w3.org/2000/svg" viewBox="0 0 658.24 225.3"><g id="Layer_2" data-name="Layer 2"><g id="Layer_1-2" data-name="Layer 1"><path d="M248.49,208.17a7.5,7.5,0,0,1-3.64,6.37,13.62,13.62,0,0,1-7.91,2.52,8.11,8.11,0,0,1-7.41-3.85,27.24,27.24,0,0,1-3.39-9.92A93.43,93.43,0,0,1,225,189.81q-.12-7.4-.37-14.21c-.34-1.38-.76-3.36-1.26-5.92a93,93,0,0,1-1.25-9.78Q215.35,151,205.8,151a34.34,34.34,0,0,0-7,.74,15,15,0,0,0-6.53,3.26,23.33,23.33,0,0,0-5.52,7.55,50.92,50.92,0,0,0-4,13.62,37.17,37.17,0,0,1,.25,5.33c0,2.18-.12,4.79-.37,7.85s-.55,6.56-.88,10.51v7.26a47,47,0,0,1-1,9.47,23.73,23.73,0,0,1-3.64,8.74,8.72,8.72,0,0,1-7.66,3.85,11.78,11.78,0,0,1-8-3.11,9.7,9.7,0,0,1-3.52-7.55c0-.4.13-1.88.38-4.44s.58-5.48,1-8.74.76-6.52,1-9.77.37-5.87.37-7.85a68.36,68.36,0,0,0-.75-10.07v-3.85a79.92,79.92,0,0,0-5-28.43q-3.77-3.54-11.8-4.73a40.66,40.66,0,0,0-3.77,1.77c-1.51.79-3,2.42-4.52,4.89a39.55,39.55,0,0,0-4,10.51,103.6,103.6,0,0,0-2.51,18.36l-.75,12.14a94.3,94.3,0,0,1,1.5,15.4q0,7.71-2.13,12.29t-9.42,4.59a15.39,15.39,0,0,1-6.15-1c-1.59-.69-2.85-2.26-3.77-4.73a41.2,41.2,0,0,1-1.88-11q-.51-7.26-.5-19.4a178.32,178.32,0,0,1,1-19.1q1-9.33,3-24.13a60,60,0,0,0-2.14-9.33,23.57,23.57,0,0,1-1.38-6.66,12.35,12.35,0,0,1,3.77-8.89,11.94,11.94,0,0,1,8.79-3.85,10,10,0,0,1,6.78,2.67l4.27,6.52a45.21,45.21,0,0,1,5.27-4.59,30,30,0,0,1,4-2.52,9.59,9.59,0,0,1,3.51-1q1.75-.15,4-.15h5.15a9.65,9.65,0,0,1,3.89.89,25.71,25.71,0,0,1,4.65,2.82q2.63,1.92,7.4,5.77,3,2.37,8,15.4l1.51-2.08a26.18,26.18,0,0,1,5.52-4.14,54.41,54.41,0,0,1,7.66-3.7,64.63,64.63,0,0,1,8.54-2.67,34.72,34.72,0,0,1,7.91-1,47.39,47.39,0,0,1,14.31,1.92,29,29,0,0,1,10.3,5.63,35.67,35.67,0,0,1,7.53,9.47,116.53,116.53,0,0,1,6.28,13.18v2.07c0,1.59.16,4.45.5,8.59s.67,8.29,1,12.44.67,7.75,1,10.81a30.47,30.47,0,0,0,.5,4c0,.2,0,.85.13,1.93s.16,2.37.25,3.85.16,3,.25,4.44.12,2.62.12,3.41Z" transform="translate(-51.68 -96.58)" fill="#365347"/><path d="M371.29,118.74a51.5,51.5,0,0,1,.5,7.11v6.81a110.55,110.55,0,0,1-2.51,24.58q-1,7.41-1.51,15.25t-1,16.43q0,.6.63,6.37a170.19,170.19,0,0,1,.63,17c0,3.36-1.13,5.87-3.39,7.55a12.9,12.9,0,0,1-7.91,2.52c-3.68,0-6.28-.94-7.78-2.82s-2.43-6.36-2.77-13.47a40,40,0,0,1-8.28,7.25,35.14,35.14,0,0,1-7.66,3.71,31.87,31.87,0,0,1-6.78,1.48c-2.1.2-4.06.29-5.9.29q-14.32,0-21.6-10.06t-7.28-27.84v-4.29c0-1.48.08-3.21.25-5.19a8.47,8.47,0,0,1-.25-2.66q0-3.25.12-6.66a80.68,80.68,0,0,1,.88-8.44q.76-5,2.39-12.59t4.64-19.39a10.17,10.17,0,0,1,8.79-4.74,11.11,11.11,0,0,1,7.41,2.66c2.09,1.78,3.14,4.55,3.14,8.29a45,45,0,0,1-.75,5.93c-.51,3-1.09,6.21-1.76,9.77s-1.26,7.11-1.76,10.66a63.64,63.64,0,0,0-.75,8.29v1.48c-.34,2.18-.59,4.29-.76,6.37s-.25,4-.25,5.77a36.56,36.56,0,0,0,1.89,12.73q1.88,5,8.16,5a15.82,15.82,0,0,0,8.54-2.52,35.71,35.71,0,0,0,7.4-6.22,46.3,46.3,0,0,0,5.9-8,42,42,0,0,0,3.77-8.15q1.26-11,4.52-28.72v-3c0-3.36.13-6.61.38-9.77a40,40,0,0,1,1.5-8.44,13.85,13.85,0,0,1,3.39-5.92,8.55,8.55,0,0,1,6.28-2.23Q369.27,111,371.29,118.74Z" transform="translate(-51.68 -96.58)" fill="#365347"/><path d="M494.83,125.26q-.75,6.51-10.8,28.13l-7.53,19.84q-2.26,6.81-4,11.55c-1.17,3.16-2.22,5.88-3.14,8.14a55.92,55.92,0,0,1-2.76,5.92q-1.38,2.52-2.89,4.89a38.79,38.79,0,0,1-3.51,7.26,43.92,43.92,0,0,1-5.28,6.95,28.52,28.52,0,0,1-6.52,5.34,14.21,14.21,0,0,1-7.29,2.07q-10.54,0-15.06-15.7a44.36,44.36,0,0,1-5.28-9.18c-1.67-3.74-3.14-7.4-4.39-10.95s-2.3-6.67-3.14-9.33-1.34-4.19-1.51-4.59a46.15,46.15,0,0,1-3-17.47v-2.37q-4.77-14.22-4.77-26.06,0-5.62,3.89-8.29a15.38,15.38,0,0,1,8.92-2.67,7.24,7.24,0,0,1,4.89,1.63,11.22,11.22,0,0,1,3,4.74,43.92,43.92,0,0,1,1.88,7.55q.75,4.44,1.76,10.07Q430,152.5,431.43,159a111.52,111.52,0,0,0,3,11.54,88.75,88.75,0,0,0,3.89,9.93c1.51,3.25,3.43,7.06,5.78,11.4a47.41,47.41,0,0,0,8.54-19.55,62,62,0,0,0,2.88-7.55q1.14-3.71,3.14-9.62t5.78-15.25q3.76-9.33,11.05-24.14,2.76-4.14,6.78-4.14,4.52,0,8.53,4.14t4,8.59Z" transform="translate(-51.68 -96.58)" fill="#365347"/><path d="M586.23,217.65q-3.26,2.67-10.54,5.18a143.36,143.36,0,0,1-15.07,4.29l-10.29-2.36a53.2,53.2,0,0,1-7.41-4.15,43.23,43.23,0,0,1-10.42-9.92,64.59,64.59,0,0,1-9.29-17.18q-4-10.5-4-25.61a45.73,45.73,0,0,1,2.13-12.59,49.31,49.31,0,0,1,6.41-13.62,40.62,40.62,0,0,1,10.67-10.81,25.57,25.57,0,0,1,14.94-4.44q17.07,0,30.89,13a80.8,80.8,0,0,1,12,43.24Q596.28,200.19,586.23,217.65Zm-12.3-42.05q-1.26-11.55-6.15-18.21t-12.43-6.66q-5,0-9.42,5.77t-4.39,16.73a46.36,46.36,0,0,0,1,9.33,30.15,30.15,0,0,0,3.27,8.88,19.79,19.79,0,0,0,5.77,6.52,14.26,14.26,0,0,0,8.54,2.51q8,0,11-5.77t3-14.36a19.32,19.32,0,0,0-.12-2.22A20,20,0,0,1,573.93,175.6Z" transform="translate(-51.68 -96.58)" fill="#365347"/><path d="M709.78,192.18v2.37q0,1.78.13,6.37a44.39,44.39,0,0,1-.76,9.33,22,22,0,0,1-3.39,8.44,8.48,8.48,0,0,1-7.53,3.7q-9.79,0-11.55-9.18a30.07,30.07,0,0,0,.25-4V195.59c0-5-.13-10.51-.38-16.44a144,144,0,0,0-1.63-16.73q-1.26-7.84-3.77-9.92c-3.85-3.15-7.28-4.74-10.29-4.74a13.59,13.59,0,0,0-10.17,4.3q-4.14,4.29-6.91,16.73c-.17,2.77-.33,5.87-.5,9.33s-.42,7.35-.75,11.69q0,5,.25,11.11t.75,13.77a12.54,12.54,0,0,1-3.76,9.33,11.92,11.92,0,0,1-8.54,3.7,8,8,0,0,1-6-2.37,14.83,14.83,0,0,1-3.39-6.22,42.81,42.81,0,0,1-1.51-8.29q-.37-4.44-.37-8.89,0-3.25.25-6.66c.16-2.27.42-4.59.75-7l2-28.43,2-14.21a38.57,38.57,0,0,0-2-7.7,20.68,20.68,0,0,1-1.51-6.51,14.15,14.15,0,0,1,3.39-9.18,10.45,10.45,0,0,1,8.42-4.15,7.54,7.54,0,0,1,5.27,1.63q1.75,1.64,5.78,7.85a37.82,37.82,0,0,1,8-3.41,29.86,29.86,0,0,1,7-.74,37.89,37.89,0,0,1,23,7.26q9.92,7.26,12.43,24.13.75,6.23,1.38,10.36c.42,2.77.79,5.44,1.13,8s.67,5.28,1,8.14S709.11,187.84,709.78,192.18Z" transform="translate(-51.68 -96.58)" fill="#365347"/><path d="M115.5,265.26c-.06.3-.18.81-.38,1.52s-.42,1.49-.65,2.35-.44,1.74-.65,2.63a16,16,0,0,0-.38,2.39c0,.61-.14,1.33-.26,2.17s-.28,1.67-.46,2.5-.33,1.63-.45,2.36-.22,1.33-.27,1.79c-.1,1.06-.19,2.28-.27,3.64s-.12,2.68-.15,3.92,0,2.34,0,3.3v1.83c.1.91.23,1.94.38,3.08s.36,2.37.61,3.68a15.33,15.33,0,0,0,2.21,2.43,3.52,3.52,0,0,1-2.74,1.3,2.19,2.19,0,0,1-2-1.07,7.93,7.93,0,0,1-.92-3.08c-.17-1.34-.3-3-.38-4.94s-.21-4.14-.41-6.57a5.11,5.11,0,0,0,.45-1.79c.1-.83.17-1.68.19-2.54s0-1.67.08-2.43a13.32,13.32,0,0,1,.11-1.6c0,.05.08-.34.23-1.18s.33-1.82.53-3,.38-2.31.53-3.5a21.83,21.83,0,0,0,.23-2.77v-.46l.69-3c.25-1.14.55-2.37.91-3.69a1.86,1.86,0,0,1,1.37-.53A2.22,2.22,0,0,1,115.5,265.26Z" transform="translate(-51.68 -96.58)" fill="#635b58"/><path d="M132.52,283v.31a18.33,18.33,0,0,1-.23,2.39c-.15,1-.4,2.32-.76,3.84a6.54,6.54,0,0,1,.15,1.21,6,6,0,0,1-.11,1c-.08.46-.17,1-.27,1.48s-.19,1.07-.26,1.6a9.27,9.27,0,0,0-.12,1.33,6.74,6.74,0,0,0,0,.68,4.84,4.84,0,0,1,0,.69,19.7,19.7,0,0,1-.19,2.7,17.16,17.16,0,0,0-.19,1.78c0,.26,0,.53,0,.84s.06.63.11,1a1.47,1.47,0,0,1-1.59,1.21,1.74,1.74,0,0,1-1.83-1.48,13.8,13.8,0,0,1-.38-3.38,15,15,0,0,1,.42-3.5,24.1,24.1,0,0,0,.57-4c0-1.21.11-2.2.19-3s.16-1.46.27-2.09.22-1.28.38-1.94.32-1.49.53-2.51a2.15,2.15,0,0,1,1.59-.6A2.86,2.86,0,0,1,132.52,283Zm2.36-11.85a2.35,2.35,0,0,1,.07.68,2.67,2.67,0,0,1-.64,1.9,4.3,4.3,0,0,1-2.7.84,5.89,5.89,0,0,1-1.33-1.3,2.31,2.31,0,0,1-.5-1.36,5.17,5.17,0,0,1,1.14-2.21h2a2.8,2.8,0,0,1,1.06.15,1.07,1.07,0,0,1,.5.46C134.6,270.55,134.72,270.83,134.88,271.19Z" transform="translate(-51.68 -96.58)" fill="#635b58"/><path d="M164.74,280.38l-4.25.38c-.16,0-.45,0-.88.08l-1.48.15-1.75.15c-.61.05-1.21.08-1.82.08.05,1.06.14,2.33.26,3.8s.27,3,.42,4.48.31,3,.46,4.37.3,2.55.45,3.46a5.75,5.75,0,0,0-.15,1.37v1.75c0,1.42.08,3.14.23,5.16a2.68,2.68,0,0,1-2,1,1.43,1.43,0,0,1-1.29-.83c0-.46,0-1,0-1.64s0-1.33,0-2.09,0-1.58,0-2.47,0-1.86,0-2.92v-.46a33.26,33.26,0,0,0-.91-6.38l-.68-8.06a22.08,22.08,0,0,0-2.36.15c-.91.1-2,.26-3.19.46h-.46a13.23,13.23,0,0,0-1.44.07c-.46.06-.71.08-.76.08a1.35,1.35,0,0,1-1.07-1.52,1.15,1.15,0,0,1,1-1.22H143a8.77,8.77,0,0,0,1.06-.07l1.29-.15c.51-.05,1.12-.13,1.83-.23l1.21-.15c.36-.05.75-.09,1.18-.12s.85,0,1.25,0h.46l-.76-9.19a9.21,9.21,0,0,1,.61-3.08,25.67,25.67,0,0,1,1.9-4l1.37-.84a6.89,6.89,0,0,1,1.55-.68c.64-.2,1.44-.4,2.4-.61s2.25-.4,3.87-.61a1.67,1.67,0,0,1,1.11.31,1.52,1.52,0,0,1,.34,1.14,1.22,1.22,0,0,1-.42,1.06,4,4,0,0,1-1.25.53c-.56.16-1.27.32-2.13.5a23,23,0,0,0-3,.87,3.36,3.36,0,0,0-2.24,2c-.33.93-.62,1.86-.87,2.77,0,.1,0,.37,0,.8s0,.9,0,1.4,0,1,0,1.45,0,.78,0,1v.45c0,.51,0,1.1.11,1.79a15.32,15.32,0,0,0,.5,2.39c1.52,0,2.7,0,3.53-.11s1.51-.17,2-.27.9-.19,1.17-.26a4.17,4.17,0,0,1,1.11-.12,11.08,11.08,0,0,1,1.74.19,1.2,1.2,0,0,1,1.07,1.33A1.25,1.25,0,0,1,164.74,280.38Z" transform="translate(-51.68 -96.58)" fill="#635b58"/><path d="M199.55,303.33a31.88,31.88,0,0,1-2.55,2.13,22.25,22.25,0,0,1-3,1.9,17.78,17.78,0,0,1-3.15,1.33,10.57,10.57,0,0,1-3.12.5,28.08,28.08,0,0,1-3.31-.23,32.16,32.16,0,0,1-4.21-.84,23.72,23.72,0,0,1-3-2.43,20.89,20.89,0,0,1-2.73-3.19,18.14,18.14,0,0,1-2-3.76,11.26,11.26,0,0,1-.8-4.15,57.69,57.69,0,0,1,.69-5.92c.45-.81.92-1.63,1.4-2.44a24.34,24.34,0,0,1,1.6-2.35,16.79,16.79,0,0,1,2.05-2.21,15.92,15.92,0,0,1,2.78-2c1.72-.41,3.2-.71,4.44-.91a18.74,18.74,0,0,1,3-.31,8.51,8.51,0,0,1,3.54.65,12.09,12.09,0,0,1,3.23,2.47l2.35,2.43v.61a12.32,12.32,0,0,1-.57,4.18,5,5,0,0,1-2.16,2.51,16.76,16.76,0,0,1-4.37,1.74q-2.78.76-7.11,1.75h-.3a16,16,0,0,0-2.51.27c-1.06.18-2.38.42-3.95.72a17.93,17.93,0,0,0,4.18,7.75,8.5,8.5,0,0,0,6.23,2.66q4.94,0,11.25-4.94a1,1,0,0,1,.76-.3q1.44,0,1.44,1.59A2.47,2.47,0,0,1,199.55,303.33Zm-6.08-17.86c-1.77-2.88-3.8-4.33-6.08-4.33a13.85,13.85,0,0,0-6,1.37,10.07,10.07,0,0,0-4.34,3.65l-.76,2.43a10.7,10.7,0,0,0-.41,2c-.08.69-.14,1.39-.19,2.09a31.15,31.15,0,0,1,4.06-.6c1.29-.1,2.52-.22,3.69-.35a24.74,24.74,0,0,0,3.34-.57A12.21,12.21,0,0,0,189.9,290C192.23,288.69,193.42,287.2,193.47,285.47Z" transform="translate(-51.68 -96.58)" fill="#635b58"/><path d="M247.2,283v.31a16.71,16.71,0,0,1-.23,2.39c-.15,1-.4,2.32-.76,3.84a6.71,6.71,0,0,1,.16,1.21,6.34,6.34,0,0,1-.12,1c-.07.46-.16,1-.26,1.48s-.19,1.07-.27,1.6a9.06,9.06,0,0,0-.11,1.33c0,.25,0,.48,0,.68a4.84,4.84,0,0,1,0,.69,19.7,19.7,0,0,1-.19,2.7,17.16,17.16,0,0,0-.19,1.78c0,.26,0,.53,0,.84s.06.63.11,1a1.47,1.47,0,0,1-1.59,1.21A1.75,1.75,0,0,1,242,303.6a13.8,13.8,0,0,1-.38-3.38,15,15,0,0,1,.42-3.5,24.1,24.1,0,0,0,.57-4c.05-1.21.12-2.2.19-3s.17-1.46.27-2.09.23-1.28.38-1.94.33-1.49.53-2.51a2.17,2.17,0,0,1,1.6-.6A2.82,2.82,0,0,1,247.2,283Zm2.36-11.85a2.35,2.35,0,0,1,.07.68,2.67,2.67,0,0,1-.64,1.9,4.28,4.28,0,0,1-2.7.84,5.89,5.89,0,0,1-1.33-1.3,2.29,2.29,0,0,1-.49-1.36,5.17,5.17,0,0,1,1.14-2.21h2a2.77,2.77,0,0,1,1.06.15,1,1,0,0,1,.5.46C249.28,270.55,249.41,270.83,249.56,271.19Z" transform="translate(-51.68 -96.58)" fill="#635b58"/><path d="M280.94,298.55a8.92,8.92,0,0,1-1.63,4.06q-1.33,1.86-2.7,3.69a7.27,7.27,0,0,1-2.13.83c-1,.26-1.93.49-2.92.69s-1.86.35-2.62.45-1.22.16-1.37.16a9.71,9.71,0,0,1-2.05-.27c-.81-.18-1.61-.38-2.4-.61l-2.09-.61a7.88,7.88,0,0,0-1.06-.26h-.08c-.45-.1-1-.26-1.59-.46a13.06,13.06,0,0,1-1.68-.68,6.25,6.25,0,0,1-1.29-.84,1.26,1.26,0,0,1-.53-.91,1.27,1.27,0,0,1,.46-.84,2.21,2.21,0,0,1,1.06-.6,37.4,37.4,0,0,0,13.38,3,7.18,7.18,0,0,0,3.3-.8,6.08,6.08,0,0,0,2.17-1.64l2-3.26a5.07,5.07,0,0,0-.68-2.47,9.56,9.56,0,0,0-1.79-2.32,11.06,11.06,0,0,0-2.54-1.83,9.35,9.35,0,0,0-3-1,13,13,0,0,1-3.87-1.33c-1.17-.64-2.31-1.28-3.42-1.94q-1.22-1.44-1.37-5.78a5.67,5.67,0,0,1,2-3.72l3.49-2.05,7.3-.69a27.88,27.88,0,0,1,6,1.75,2.43,2.43,0,0,1,.46,1.52,1.57,1.57,0,0,1-.27,1.1,1.07,1.07,0,0,1-.8.27c-1.31-.46-2.57-.85-3.76-1.18a12.2,12.2,0,0,0-3.23-.49,17.81,17.81,0,0,0-4.29.41A6.43,6.43,0,0,0,265,281a2.8,2.8,0,0,0-1,1.29,4.3,4.3,0,0,0-.19,1.1q0,4.11,3.35,5.17Q279.43,291,280.94,298.55Z" transform="translate(-51.68 -96.58)" fill="#635b58"/><path d="M347.37,298.77v1.87a15.66,15.66,0,0,1-.15,2.12,7.17,7.17,0,0,1-.57,2,1.4,1.4,0,0,1-1.33.87c-1,0-1.52-.38-1.68-1.14,0-.05,0-.6,0-1.67s0-2.63,0-4.71v-2a7.19,7.19,0,0,0-.11-1.22c-.08-.4-.21-1-.38-1.78s-.45-2.07-.8-3.84a9.33,9.33,0,0,0-1.26-3.23,5.47,5.47,0,0,0-1.78-1.75,5.66,5.66,0,0,0-2.05-.72,14.81,14.81,0,0,0-2.06-.15,7.16,7.16,0,0,0-4.71,1.63q-2,1.63-3.34,6.12c0,.86-.05,1.85-.15,3s-.26,2.38-.46,3.8q.08,3,.46,7.75a1.55,1.55,0,0,1-1.75,1.37,1.25,1.25,0,0,1-1.1-.61,4.53,4.53,0,0,1-.65-1.52,11.46,11.46,0,0,1-.3-1.93c0-.69-.08-1.28-.08-1.79a16.91,16.91,0,0,1,.3-3.27l.76-8.36q.08-.92.27-2c.13-.74.29-1.53.49-2.4a16.77,16.77,0,0,0-1.44-4.63c0-1,.61-1.52,1.82-1.52.66,0,1.3.45,1.9,1.37s1.14,1.8,1.6,2.66a13,13,0,0,1,3.23-1.79,9.73,9.73,0,0,1,3.46-.65c.3,0,.42,0,.34,0s-.08,0,0,0a5.79,5.79,0,0,1,.76.15l2.55.61q5.46,1.29,6.53,7.45a19.2,19.2,0,0,0,.76,3.64Z" transform="translate(-51.68 -96.58)" fill="#635b58"/><path d="M378.15,304.85c-1.27.82-3.75,1.5-7.45,2.06-.36-.06-.91-.11-1.67-.16a8.38,8.38,0,0,1-2.66-.72,12.61,12.61,0,0,1-3.19-2,15.07,15.07,0,0,1-3.27-4.29,16,16,0,0,1-1.56-3.84,15.77,15.77,0,0,1-.49-3.92,10.92,10.92,0,0,1,.57-3.07,11.89,11.89,0,0,1,1.82-3.58,11.25,11.25,0,0,1,3.23-2.92,9,9,0,0,1,4.79-1.22,14.51,14.51,0,0,1,9.12,3.35,17.65,17.65,0,0,1,3.72,11A15.16,15.16,0,0,1,378.15,304.85Zm-6.31-20.36a7.66,7.66,0,0,0-3-.69,6.2,6.2,0,0,0-2.51.57,7.19,7.19,0,0,0-2.35,1.71,8.93,8.93,0,0,0-1.75,2.85,10.62,10.62,0,0,0-.69,4,14.48,14.48,0,0,0,.5,3.65,10.47,10.47,0,0,0,1.56,3.42,8.85,8.85,0,0,0,2.69,2.51,7.44,7.44,0,0,0,3.92,1,11.57,11.57,0,0,0,5.09-1.22,11.59,11.59,0,0,0,2.51-7.22Q377.77,286.92,371.84,284.49Z" transform="translate(-51.68 -96.58)" fill="#635b58"/><path d="M410.14,279a1.42,1.42,0,0,1,.23.76,3.29,3.29,0,0,1-.11,1c-.08.23-.32.4-.72.5a10.33,10.33,0,0,1-1.9.19l-3.65.11c-2.48.1-4.06.36-4.71.76q0,.39,0,.72a5.64,5.64,0,0,1,0,.73c0,.6,0,1.21-.07,1.82s-.09,1.18-.12,1.71-.06,1-.11,1.37-.08.59-.08.64a8.39,8.39,0,0,0,.15,1.52,11,11,0,0,0-.22,1.79c0,.79-.08,1.76-.08,2.93a21.4,21.4,0,0,0,.38,4.4,3.66,3.66,0,0,0,2,2.59l3.42,1.37q1.14.38,1.14,1.29a1.35,1.35,0,0,1-1.52,1.52,8.65,8.65,0,0,1-1.33-.19c-.64-.13-1.31-.31-2-.53a12.87,12.87,0,0,1-2-.84,2.6,2.6,0,0,1-1.26-1.18,22.42,22.42,0,0,1-1.52-3.87,14.52,14.52,0,0,1-.53-3.88c0-1.57,0-2.74.08-3.5a18,18,0,0,1,.19-1.82c.07-.46.14-.91.19-1.37s.07-1.19.07-2.2,0-2.09.12-2.93.14-1.53.19-2.09a16.89,16.89,0,0,1-1.75.31l-2.39.3c-.84.1-1.64.23-2.4.38a8.22,8.22,0,0,0-1.67.46c-1.27,0-1.9-.48-1.9-1.45a1.24,1.24,0,0,1,.76-1.1,7.67,7.67,0,0,1,1.6-.65,9.91,9.91,0,0,1,1.52-.3c.45-.05.63-.08.53-.08h.38a18,18,0,0,0,5.55-1.14c.05-.81.07-1.6.07-2.39s.05-1.68.15-2.7.3-2.2.57-3.57.73-3,1.33-5a1.2,1.2,0,0,1,1.22-.76,1.49,1.49,0,0,1,1.52,1.14,9.46,9.46,0,0,1-.23,1.11l-.49,2.09c-.18.76-.34,1.49-.5,2.2a8.78,8.78,0,0,0-.22,1.37c-.06,1.16-.09,2.3-.12,3.42s0,2.18,0,3.19c.16,0,.7-.06,1.64-.19a21.17,21.17,0,0,1,2.92-.19,1.76,1.76,0,0,1,.46,0,1.54,1.54,0,0,0,.3,0l1.37-.12c.41,0,.79,0,1.14,0A5.77,5.77,0,0,1,410.14,279Z" transform="translate(-51.68 -96.58)" fill="#635b58"/><path d="M474,267.84a18,18,0,0,0-.23,1.9c-.05.71-.07,1.55-.07,2.51,0,.71,0,1.5.07,2.36s.08,1.64.08,2.35a23.39,23.39,0,0,1-.23,3.65,7.83,7.83,0,0,1,.15,1.52c0,.15,0,.46-.07.91s-.1,1-.15,1.56-.11,1.17-.16,1.75-.07,1-.07,1.4a.73.73,0,0,0,0,.27,1.12,1.12,0,0,1,0,.27,40.67,40.67,0,0,0-.95,6.27q-.41,4.37-.95,10a1.9,1.9,0,0,1-1.9,1.29,4.5,4.5,0,0,1-1.36-.23l-.76-2.35a15.66,15.66,0,0,1-8.29,2.13,12,12,0,0,1-4.56-.84,10.57,10.57,0,0,1-3.53-2.32,10.16,10.16,0,0,1-2.28-3.49,11.83,11.83,0,0,1-.8-4.37,10.21,10.21,0,0,1,.34-2.66,15,15,0,0,1,.88-2.47,13.39,13.39,0,0,1,1.17-2.13,10.37,10.37,0,0,1,1.26-1.56,14.59,14.59,0,0,1,4.44-2.81,15.36,15.36,0,0,1,6.27-1.29,20.69,20.69,0,0,1,7.68,2c0-.5-.08-1-.08-1.48v-1.41a57.12,57.12,0,0,1,.46-7.44l-.46-5.17q0-.37,0-.69a4,4,0,0,1,0-.6c0-.51,0-1,0-1.52a6.12,6.12,0,0,1,.19-1.37,1.89,1.89,0,0,1,.57-1,1.68,1.68,0,0,1,1.17-.38,3.6,3.6,0,0,1,.84.08c.2.05.37.24.49.57a8.16,8.16,0,0,1,.35,1.63C473.63,265.41,473.78,266.47,474,267.84Zm-4.33,19.23a10.26,10.26,0,0,0-7.45-2.74,16.69,16.69,0,0,0-3.84.38,7.26,7.26,0,0,0-2.62,1.18,6.89,6.89,0,0,0-1.82,2.09,24,24,0,0,0-1.52,3.12,9.83,9.83,0,0,0-.69,3.49,7.24,7.24,0,0,0,2.55,5.67,9.71,9.71,0,0,0,6.65,2.24,11.52,11.52,0,0,0,7-2.74c.25-1,.56-2.26.91-3.76a20.9,20.9,0,0,0,.54-4.9,5.27,5.27,0,0,1-.08-.84v-.76a6.67,6.67,0,0,1,.11-1.33Z" transform="translate(-51.68 -96.58)" fill="#635b58"/><path d="M513.2,300.29a1.31,1.31,0,0,1,.68,1.07,1.77,1.77,0,0,1-.72,1.25,2.58,2.58,0,0,1-1.41.72,4.86,4.86,0,0,1-1.93-1.29c-.43-.5-.9-1-1.41-1.52a8.13,8.13,0,0,1-1.75-2.92,32.5,32.5,0,0,1-1.52-5.59c-.4.91-.86,2.12-1.37,3.61a24.33,24.33,0,0,1-2,4.37,13.16,13.16,0,0,1-3.12,3.69,7.92,7.92,0,0,1-7.45,1.06,14.25,14.25,0,0,1-2.28-1.1,17.78,17.78,0,0,1-2.2-1.67,8.49,8.49,0,0,1-1.86-2.78,9.81,9.81,0,0,1-.65-3.76,14.51,14.51,0,0,1,.53-3.61,24.82,24.82,0,0,1,1.49-4.07,24.36,24.36,0,0,1,2.31-3.95,18,18,0,0,1,3.12-3.34q6.07-2.2,8.21-2.21c1.11-1.36,2.05-2.05,2.81-2.05.4,0,.8.39,1.18,1.18a20.09,20.09,0,0,1,1.1,2.93,34.81,34.81,0,0,1,.91,3.8c.25,1.36.46,2.66.61,3.87a4.79,4.79,0,0,1,.3,1c.1.46.21.93.31,1.41s.2.92.3,1.33a5,5,0,0,0,.23.76A12.78,12.78,0,0,0,513.2,300.29Zm-9.88-11.93q-.15-.75-.57-2.7t-1.18-5.13a15,15,0,0,1-3,.46,10.15,10.15,0,0,0-3,.61,9.24,9.24,0,0,0-3,1.9,17.22,17.22,0,0,0-3.19,4.33,16.43,16.43,0,0,0-2.05,8.21,16.63,16.63,0,0,0,.95,2.13,6.8,6.8,0,0,0,1.25,1.63,13.62,13.62,0,0,0,1.79,1.41,22.68,22.68,0,0,0,2.62,1.44,11.58,11.58,0,0,0,2.51-.76,6.41,6.41,0,0,0,1.75-1.18,7.74,7.74,0,0,0,1.4-1.9q.64-1.17,1.56-3a26.16,26.16,0,0,0,1.63-4.29A12.72,12.72,0,0,0,503.32,288.36Z" transform="translate(-51.68 -96.58)" fill="#635b58"/><path d="M526.8,283v.31a16.71,16.71,0,0,1-.23,2.39c-.15,1-.4,2.32-.76,3.84a6.71,6.71,0,0,1,.16,1.21,6.34,6.34,0,0,1-.12,1c-.08.46-.16,1-.26,1.48s-.19,1.07-.27,1.6a9.27,9.27,0,0,0-.12,1.33,6.74,6.74,0,0,0,0,.68,4.84,4.84,0,0,1,0,.69,19.7,19.7,0,0,1-.19,2.7,17.16,17.16,0,0,0-.19,1.78c0,.26,0,.53,0,.84s.06.63.11,1a1.47,1.47,0,0,1-1.59,1.21,1.75,1.75,0,0,1-1.83-1.48,13.8,13.8,0,0,1-.38-3.38,15,15,0,0,1,.42-3.5,24.1,24.1,0,0,0,.57-4c0-1.21.11-2.2.19-3s.17-1.46.27-2.09.23-1.28.38-1.94.33-1.49.53-2.51a2.17,2.17,0,0,1,1.59-.6A2.83,2.83,0,0,1,526.8,283Zm2.36-11.85a2.35,2.35,0,0,1,.07.68,2.67,2.67,0,0,1-.64,1.9,4.28,4.28,0,0,1-2.7.84,5.89,5.89,0,0,1-1.33-1.3,2.31,2.31,0,0,1-.5-1.36,5.17,5.17,0,0,1,1.14-2.21h2a2.77,2.77,0,0,1,1.06.15,1,1,0,0,1,.5.46C528.88,270.55,529,270.83,529.16,271.19Z" transform="translate(-51.68 -96.58)" fill="#635b58"/><path d="M548.54,297.71v.53c0,.86-.07,2.23-.19,4.11s-.32,4.25-.57,7.14q-3,12.39-13.53,12.39c-.46,0-1,0-1.56-.08a12.4,12.4,0,0,1-1.67-.26,4.9,4.9,0,0,1-1.37-.54,1,1,0,0,1-.57-.95,1.41,1.41,0,0,1,.53-1.17,1.92,1.92,0,0,1,1.22-.42,8.57,8.57,0,0,0,3,.45,14.43,14.43,0,0,0,4.94-.83,5.76,5.76,0,0,0,3.35-3.5c.4-1,.76-1.76,1.06-2.39s.56-1.13.76-1.48q.52-2.74.84-4.56c.2-1.22.35-2.22.45-3s.17-1.41.19-1.9,0-.9,0-1.25c0-.66,0-1.36-.08-2.09s-.11-1.43-.19-2.09-.16-1.42-.26-2.28c-.36-1.47-.62-2.8-.8-4s-.32-2.27-.42-3.23c.31-1,.86-1.52,1.67-1.52a2.49,2.49,0,0,1,1.83.76A100.55,100.55,0,0,1,548.54,297.71Zm-2.74-22.8a4.18,4.18,0,0,1-2.66,1.52,7.23,7.23,0,0,1-1.56-.87,1.9,1.9,0,0,1-.8-1.64,3,3,0,0,1,.65-1.78,1.88,1.88,0,0,1,1.56-.88,15.84,15.84,0,0,1,2.73,1.14,8,8,0,0,1,.23,1.67A1.91,1.91,0,0,1,545.8,274.91Z" transform="translate(-51.68 -96.58)" fill="#635b58"/><path d="M579.32,304.85c-1.27.82-3.75,1.5-7.45,2.06-.36-.06-.91-.11-1.67-.16a8.38,8.38,0,0,1-2.66-.72,12.83,12.83,0,0,1-3.2-2,15.25,15.25,0,0,1-3.26-4.29,16,16,0,0,1-1.56-3.84,15.78,15.78,0,0,1-.5-3.92,10.92,10.92,0,0,1,.57-3.07,11.92,11.92,0,0,1,1.83-3.58,11.12,11.12,0,0,1,3.23-2.92,9,9,0,0,1,4.79-1.22,14.51,14.51,0,0,1,9.12,3.35,17.65,17.65,0,0,1,3.72,11A15.16,15.16,0,0,1,579.32,304.85ZM573,284.49a7.7,7.7,0,0,0-3-.69,6.2,6.2,0,0,0-2.51.57,7.22,7.22,0,0,0-2.36,1.71,8.91,8.91,0,0,0-1.74,2.85,10.62,10.62,0,0,0-.69,4,14.48,14.48,0,0,0,.5,3.65,10.24,10.24,0,0,0,1.55,3.42,8.89,8.89,0,0,0,2.7,2.51,7.44,7.44,0,0,0,3.92,1,11.57,11.57,0,0,0,5.09-1.22,11.59,11.59,0,0,0,2.51-7.22Q578.94,286.92,573,284.49Z" transform="translate(-51.68 -96.58)" fill="#635b58"/><path d="M615.87,285.4a13.62,13.62,0,0,1,1.82,6.38c-.05.71-.12,1.42-.22,2.13a7.07,7.07,0,0,1-.69,2.13l-1.67,3.49L612.6,302a11.37,11.37,0,0,1-4.67,3,13.68,13.68,0,0,1-3.69.73,10.27,10.27,0,0,1-5.17-1.83,2.73,2.73,0,0,1-2.27,1.67,3.9,3.9,0,0,1-1.22-.22c0-.71.09-1.51.11-2.4s0-1.83,0-2.85c-.05-.2-.11-.67-.19-1.4s-.16-1.6-.27-2.59-.2-2-.3-3.15-.19-2.17-.27-3.16-.16-1.83-.26-2.54a10.48,10.48,0,0,0-.23-1.29l-1.22-9.5a47.6,47.6,0,0,0-1.1-5.86,15.73,15.73,0,0,1-.64-3.72c0-1.11.48-1.67,1.44-1.67a1.84,1.84,0,0,1,1.67,1.06,10.66,10.66,0,0,1,1,3,48.32,48.32,0,0,1,.72,4.79c.2,1.88.46,4,.76,6.31.15,1.42.25,2.61.31,3.57s.1,1.7.15,2.2c3.09-2.23,5.16-3.47,6.23-3.72a8.76,8.76,0,0,1,2.66-.87,20.16,20.16,0,0,1,3.5-.27c.91.25,1.69.51,2.35.76a7.87,7.87,0,0,1,1.67.84,5,5,0,0,1,1.18,1.06A11.35,11.35,0,0,1,615.87,285.4Zm-2,9.35a18.45,18.45,0,0,0,.53-3.8,6.34,6.34,0,0,0-.38-1.9,8.77,8.77,0,0,0-1.14-2.21A7.33,7.33,0,0,0,611,285a4.66,4.66,0,0,0-2.66-.76q-2.51,0-10.19,4.25c.2,2.49.43,6,.69,10.64q1.21,4,4.56,4a7.83,7.83,0,0,0,2.89-.69,14.8,14.8,0,0,0,3.22-1.82,14.59,14.59,0,0,0,2.78-2.66A8.07,8.07,0,0,0,613.9,294.75Z" transform="translate(-51.68 -96.58)" fill="#635b58"/><path d="M646.58,304.85c-1.27.82-3.75,1.5-7.45,2.06-.36-.06-.91-.11-1.67-.16a8.38,8.38,0,0,1-2.66-.72,12.83,12.83,0,0,1-3.2-2,15.25,15.25,0,0,1-3.26-4.29,16,16,0,0,1-1.56-3.84,15.78,15.78,0,0,1-.5-3.92,10.92,10.92,0,0,1,.57-3.07,11.92,11.92,0,0,1,1.83-3.58,11.12,11.12,0,0,1,3.23-2.92,9,9,0,0,1,4.79-1.22,14.51,14.51,0,0,1,9.12,3.35,17.65,17.65,0,0,1,3.72,11A15.16,15.16,0,0,1,646.58,304.85Zm-6.31-20.36a7.7,7.7,0,0,0-3-.69,6.2,6.2,0,0,0-2.51.57,7.22,7.22,0,0,0-2.36,1.71,8.91,8.91,0,0,0-1.74,2.85,10.62,10.62,0,0,0-.69,4,14.48,14.48,0,0,0,.5,3.65A10.24,10.24,0,0,0,632,300a8.89,8.89,0,0,0,2.7,2.51,7.44,7.44,0,0,0,3.92,1,11.57,11.57,0,0,0,5.09-1.22,11.59,11.59,0,0,0,2.51-7.22Q646.2,286.92,640.27,284.49Z" transform="translate(-51.68 -96.58)" fill="#635b58"/><path d="M685,277.72c.05.56.09,1.1.12,1.64s0,1.07,0,1.63a24.2,24.2,0,0,1-.19,3.34c-.12.92-.28,1.92-.45,3s-.38,2.42-.61,4-.45,3.64-.65,6.23a2,2,0,0,1,0,.38,3.4,3.4,0,0,0,0,.45c0,.56,0,1.21.07,1.94s.12,1.42.19,2.05.15,1.17.23,1.6.11.6.11.49q0,1.14-1.59,1.14A1.38,1.38,0,0,1,681,305a3.77,3.77,0,0,1-.61-1.36,10.22,10.22,0,0,1-.23-1.71c0-.61,0-1.14,0-1.6a17.72,17.72,0,0,1,.23-2.74l-2,1.83c-.66.61-1.32,1.24-2,1.9a9.67,9.67,0,0,1-4.75,2.39,26.19,26.19,0,0,1-3.68.34,7.7,7.7,0,0,1-5.93-2.2,8.91,8.91,0,0,1-2.05-6.31c0-.3,0-.72,0-1.25s.07-1.18.12-1.94a1,1,0,0,0,0-.3,1.1,1.1,0,0,1,0-.31c0-.56,0-1.12.08-1.71a19.77,19.77,0,0,1,.34-2.2c.18-.89.43-2,.76-3.35s.8-3,1.41-5.13a1.68,1.68,0,0,1,1.21-.53c.91,0,1.37.51,1.37,1.52a7.42,7.42,0,0,1-.3,1.6c-.21.76-.42,1.61-.65,2.54s-.44,1.88-.65,2.82a11.25,11.25,0,0,0-.3,2.24,1.87,1.87,0,0,0,0,.42,2.23,2.23,0,0,1,0,.34c-.11.71-.19,1.35-.27,1.94a11.85,11.85,0,0,0-.11,1.63,13.85,13.85,0,0,0,.26,2.77,6.16,6.16,0,0,0,1,2.36,5.09,5.09,0,0,0,1.94,1.63,6.89,6.89,0,0,0,3.11.61,8.28,8.28,0,0,0,3.73-.87,13.06,13.06,0,0,0,3.15-2.21,16.75,16.75,0,0,0,2.44-2.85,19.64,19.64,0,0,0,1.63-2.88c.15-1.07.37-2.33.64-3.8s.62-3.14,1-5a5.41,5.41,0,0,1-.08-.87V282c0-.46,0-1,.08-1.52a7.44,7.44,0,0,1,.3-1.56,5.13,5.13,0,0,1,.57-1.22,1,1,0,0,1,.88-.49A1.48,1.48,0,0,1,685,277.72Z" transform="translate(-51.68 -96.58)" fill="#635b58"/><path d="M69.23,193.28q0,1.77.48,9.09t.48,20.8q0,10-1.6,13.48a22.77,22.77,0,0,1,.64,5.42v6a126.37,126.37,0,0,1-.8,13.92q-.8,7.19-1.11,13.92c.21,2.35.32,4.64.32,6.89v14.06a52.16,52.16,0,0,1-.48,7.33,13.62,13.62,0,0,1-1.92,5.57,4.8,4.8,0,0,1-4.3,2.2q-5.11,0-6.38-1.76-2.88-10.84-2.88-27.55a200.79,200.79,0,0,1,1.44-22.56,221.8,221.8,0,0,0,1.44-25.21,120.83,120.83,0,0,0-1.92-21.68q0-.59.32-5.71t.64-11.58q.32-6.43,1-12.16t1.59-7.47q-1.6-5.86-1.59-21.4v-9.81q0-5.13.16-11.58t1-14.8q.8-8.34,2.39-20.07c.21-1.36,1.71-2,4.47-2q6.06,0,6.86,2.93a41.12,41.12,0,0,1,.8,9.67q0,4.39-.32,10.26t-1,13.48q.32,9.38.32,24.47Z" transform="translate(-51.68 -96.58)" fill="#ba895c"/></g></g></svg>